<svg xmlns="http://www.w3.org/2000/svg" viewBox="0 0 790.66 75.57"><defs><style>.cls-1{fill:#182839;}</style></defs><title>Recurso 2</title><g id="Capa_2" data-name="Capa 2"><g id="Capa_2-2" data-name="Capa 2"><path class="cls-1" d="M31.24,75.57q-14.56,0-22.9-8.34T0,42.85V.84H10.55V42.43q0,12.34,5.44,18t15.36,5.7q10,0,15.46-5.7t5.44-18V.84H62.48v42q0,16-8.28,24.38T31.24,75.57Z"/><path class="cls-1" d="M144.39,74.73V10H119.06V.84h61.11V10H154.84v64.7Z"/><path class="cls-1" d="M318.33,74.73V.84h10.56V65.55h40v9.18Z"/><path class="cls-1" d="M529.22,75.57A50.49,50.49,0,0,1,513.07,73a33.11,33.11,0,0,1-12.14-6.71l3.91-8.23a33.92,33.92,0,0,0,10.76,6.12,38.79,38.79,0,0,0,13.62,2.43,30.69,30.69,0,0,0,10.45-1.48,12.34,12.34,0,0,0,5.91-4.06,9.69,9.69,0,0,0,1.9-5.86A8,8,0,0,0,545,49.08a18.43,18.43,0,0,0-6.44-3.75,72.69,72.69,0,0,0-8.71-2.48q-4.76-1.05-9.55-2.48a42.69,42.69,0,0,1-8.76-3.64,17.92,17.92,0,0,1-6.39-6,17.47,17.47,0,0,1-2.43-9.66,19.44,19.44,0,0,1,3-10.5A21,21,0,0,1,515,2.9Q521.31,0,531,0a49.18,49.18,0,0,1,12.77,1.69,35.69,35.69,0,0,1,11,4.85L551.28,15a34,34,0,0,0-10-4.59A39.23,39.23,0,0,0,531,9a28.35,28.35,0,0,0-10.24,1.58,12.5,12.5,0,0,0-5.85,4.23,10,10,0,0,0-1.85,5.91,8.15,8.15,0,0,0,2.48,6.23A17.82,17.82,0,0,0,522,30.61a88.5,88.5,0,0,0,8.71,2.48q4.74,1.11,9.55,2.48A41,41,0,0,1,549,39.16a18.12,18.12,0,0,1,6.38,5.91,17,17,0,0,1,2.43,9.5A19,19,0,0,1,554.76,65a21.09,21.09,0,0,1-9.45,7.71Q538.93,75.58,529.22,75.57Z"/><path class="cls-1" d="M633.82,74.73V10H608.48V.84H669.6V10H644.26v64.7Z"/><path class="cls-1" d="M713.19,74.73,746.65.84H757.1l33.56,73.89H779.58l-29.87-68h4.22l-29.87,68Zm14.25-18.47,2.85-8.45h41.58l3.06,8.45Z"/><path class="cls-1" d="M243,13.16A12.43,12.43,0,0,1,238.57,12V66.87H243Z"/><path class="cls-1" d="M238.57,73.36a1.5,1.5,0,0,0,1.5,1.49h7.58a1.5,1.5,0,0,0,1.5-1.49v-5H238.57Z"/><path class="cls-1" d="M244.52,66.87h4.63V12a12.43,12.43,0,0,1-4.63,1.2Z"/><path class="cls-1" d="M249.13,10.29,243.86.85l-5.29,9.32v.21a10.92,10.92,0,0,0,5.21,1.32A10.78,10.78,0,0,0,249.13,10.29Z"/><path class="cls-1" d="M433.68,62.54a12.23,12.23,0,0,1,4.47,1.13V8.83h-4.47Z"/><path class="cls-1" d="M438.15,2.34a1.5,1.5,0,0,0-1.5-1.49h-7.58a1.5,1.5,0,0,0-1.5,1.49v5h10.58Z"/><path class="cls-1" d="M432.2,8.83h-4.63V63.74a12.43,12.43,0,0,1,4.63-1.2Z"/><path class="cls-1" d="M427.59,65.4l5.27,9.45,5.29-9.32v-.21a10.93,10.93,0,0,0-10.56.08Z"/></g></g></svg>